<svg xmlns="http://www.w3.org/2000/svg" width="1440" height="145" fill="none" viewBox="0 0 1440 145"><path fill="#25513A" stroke="#000" stroke-width="2" d="M74.0451 133.971C10.8732 123.173 -3.07269 81.4822 -2.14912 61.9864L-10 -1H1440V68.9849C1431.53 85.4813 1407.03 121.574 1376.74 133.971C1338.87 149.467 1274.68 148.968 1234.04 118.474C1193.41 87.9808 1065.03 61.9864 998.535 90.9801C932.038 119.974 824.443 155.966 775.032 133.971C725.621 111.976 636.258 59.5339 540.908 106.477C464.69 144 429.288 131.5 376.513 90.9801C328.847 54.3837 247.649 60.5045 208.398 81.5C169.146 102.495 153.01 147.468 74.0451 133.971Z"/></svg>