<svg width="1440" height="123" viewBox="0 0 1440 123" fill="none" xmlns="http://www.w3.org/2000/svg">
<path d="M-139.683 13.205C-218.844 25.2686 -236.319 71.8475 -235.162 93.629L-245 164H1572V85.81C1561.39 67.3795 1547.96 75.0868 1510 61.236C1462.55 43.9225 1426.15 -26.2722 1311 13.205C1140 71.8276 1137.2 83.5 1012.5 83.5C935.701 83.5 852 24 724.5 18.5C657.947 15.6291 564.828 96.369 445.344 43.9225C349.836 2 305.474 15.9655 239.34 61.236C179.611 102.123 77.861 95.2846 28.6747 71.8276C-20.5116 48.3706 -40.7315 -1.87451 -139.683 13.205Z" fill="#F2BEC3" stroke="black" stroke-width="2"/>
</svg>
